<svg width="20" height="20" viewBox="0 0 20 20" fill="none" xmlns="http://www.w3.org/2000/svg" aria-hidden="true">
  <!-- Larger artboard + bigger secondary sparkle so it stays visible when scaled down -->
  <path
    d="M14 4.5 L16.1 8.5 L19 10 L16.1 11.5 L14 15.5 L11.9 11.5 L9 10 L11.9 8.5 Z"
    fill="#151515"
  />
  <path
    d="M14 5.6 L15.4 8.5 L17.4 10 L15.4 11.5 L14 14.2 L12.6 11.5 L10.6 10 L12.6 8.5 Z"
    fill="#151515"
    opacity="0.62"
  />
  <path
    d="M4.5 2 L6.1 5.4 L9.3 6.4 L6.1 7.4 L4.5 10.8 L2.9 7.4 L0 6.4 L2.9 5.4 Z"
    fill="#151515"
    opacity="0.88"
  />
  <path
    d="M4.5 3.4 L5.35 5.4 L7.4 6.1 L5.35 6.9 L4.5 8.7 L3.65 6.9 L1.6 6.1 L3.65 5.4 Z"
    fill="#151515"
    opacity="0.55"
  />
</svg>
